#N canvas 0 0 400 260 12;
#X obj 30 30 r pdverify_note;
#X obj 30 70 unpack f f;
#X obj 30 150 outlet;
#X obj 110 150 outlet;
#X obj 190 150 outlet;
#X obj 190 90 t b;
#X msg 190 120 1;
#X connect 0 0 1 0;
#X connect 1 0 2 0;
#X connect 1 1 3 0;
#X connect 1 0 5 0;
#X connect 5 0 6 0;
#X connect 6 0 4 0;
